<svg role="img" aria-labelledby="demox-logo-title" xmlns="http://www.w3.org/2000/svg" width="1200" height="330" viewBox="0 0 1200 330" version="1.1">
<title id="demox-logo-title">Demox</title>
	<path d="M 219.166 29.534 C 207.479 32.071, 198.603 38.999, 193.359 49.678 L 190.500 55.500 189.980 134 C 189.471 210.749, 189.413 212.624, 187.353 218.048 C 186.195 221.100, 184.228 225.600, 182.983 228.048 C 179.935 234.042, 166.684 247.127, 160.500 250.248 C 136.972 262.125, 112.401 258.344, 93.944 240.007 C 79.892 226.046, 74.162 208.077, 77.499 188.437 C 80.356 171.625, 89.834 156.914, 103.778 147.650 C 113.920 140.913, 121.348 138.705, 134 138.666 C 145.916 138.630, 151.420 140.186, 163.013 146.870 L 169.745 150.752 170.302 144.626 C 170.609 141.257, 170.595 131.360, 170.271 122.633 L 169.683 106.765 166.091 105.241 C 158.673 102.091, 148.164 99.880, 138 99.330 C 111.944 97.921, 85.634 107.843, 66.133 126.431 C 44.720 146.841, 34.967 171.759, 36.270 202.727 C 37.378 229.041, 46.197 249.618, 64.396 268.351 C 91.730 296.486, 136.551 304.372, 174.218 287.673 C 187.515 281.778, 202.520 269.734, 211.578 257.684 C 217.696 249.545, 224.643 235.014, 227.813 223.725 L 230.403 214.500 230.736 121.250 L 231.068 28 228.284 28.079 C 226.753 28.123, 222.650 28.778, 219.166 29.534 M 340.215 100.547 C 328.915 102.612, 322.275 104.755, 312.340 109.543 C 283.966 123.217, 265.164 147.558, 258.409 179.361 C 256.034 190.545, 256.243 209.654, 258.858 220.377 C 263.167 238.048, 272.951 254.877, 286.448 267.835 C 303.016 283.740, 321.632 292.500, 345.454 295.599 C 378.024 299.837, 410.680 288.813, 434.239 265.628 C 441.409 258.571, 445.606 253.013, 444.402 252.170 C 443.876 251.802, 436.789 247.087, 428.653 241.694 L 413.861 231.888 407.171 238.194 C 392.205 252.298, 381.178 257.154, 362.640 257.802 C 348.566 258.295, 341.146 257.045, 331.500 252.558 C 319.089 246.786, 305.135 234.417, 306.633 230.515 C 308.268 226.252, 324.107 219.088, 338.857 215.938 C 349.864 213.588, 382.766 212.154, 427.904 212.057 L 454.308 212 453.698 198.750 C 452.951 182.549, 451.199 173.088, 446.757 161.262 C 438.457 139.165, 422.948 121.721, 401 109.794 C 384.067 100.592, 360.004 96.932, 340.215 100.547 M 541.341 100.944 C 515.386 107.025, 493.443 125.596, 484.472 149.074 C 478.324 165.163, 478.640 161.003, 478.257 230.885 L 477.904 295.269 484.088 294.570 C 496.650 293.148, 506.744 287.528, 512.741 278.618 C 519.286 268.891, 519.322 268.572, 519.970 214.500 C 520.601 161.834, 520.521 162.614, 526.100 154.405 C 529.939 148.756, 535.394 144.178, 541.954 141.101 C 546.771 138.842, 548.815 138.500, 557.500 138.502 C 566.769 138.504, 567.940 138.734, 573.516 141.649 C 579.829 144.948, 587.622 152.434, 590.463 157.929 C 594.627 165.980, 594.964 171.729, 594.983 234.866 L 595 295.233 601.736 294.512 C 615.115 293.079, 627.057 284.514, 632.820 272.218 L 635.500 266.500 636 217.422 L 636.500 168.343 640.767 159.735 C 645.559 150.068, 650.230 145.304, 659 141.139 C 663.782 138.868, 665.806 138.525, 674.500 138.513 C 682.683 138.502, 685.357 138.896, 689.217 140.679 C 696.256 143.931, 703.548 151.293, 707.276 158.911 L 710.500 165.500 710.791 229.750 L 711.083 294 731.541 294 L 752 294 751.985 228.250 C 751.969 157.010, 751.995 157.398, 746.339 143.129 C 743.278 135.405, 735.728 124.027, 730.297 118.951 C 717.365 106.865, 702.288 100.415, 684.430 99.331 C 663.248 98.044, 641.844 106.530, 626.971 122.112 C 623.880 125.350, 620.860 128, 620.260 128 C 619.659 128, 617.780 126.248, 616.084 124.106 C 612.524 119.611, 600.436 110.180, 594.306 107.114 C 591.999 105.960, 586.599 103.849, 582.306 102.423 C 571.484 98.827, 553.194 98.167, 541.341 100.944 M 859 100.682 C 820.421 107.473, 789.453 136.798, 779.840 175.641 C 776.566 188.874, 776.749 209.866, 780.254 223.072 C 794.265 275.860, 847.791 307.187, 900.511 293.455 C 928.114 286.266, 951.905 267.250, 964.261 242.500 C 974.060 222.873, 977.105 202.509, 973.530 180.500 C 964.866 127.151, 913.198 91.143, 859 100.682 M 981.386 106.101 C 983.248 117.979, 993.214 142.449, 1001.505 155.500 C 1009.265 167.716, 1025.487 180.464, 1040 185.750 C 1054.667 191.093, 1074.319 192.193, 1089.500 188.522 C 1103.342 185.175, 1119.710 174.373, 1129.111 162.381 C 1141.256 146.889, 1151.243 124.668, 1154.564 105.750 L 1155.223 102 1147.361 102.015 C 1127.848 102.051, 1112.001 110.310, 1101.338 126 C 1097.846 131.137, 1080.183 162.387, 1078.976 165.564 C 1078.073 167.937, 1083.736 180.285, 1087.030 183.126 C 1089.523 185.276, 1088.584 186, 1083.301 186 C 1070.562 186, 1061.362 176.747, 1048.506 151 C 1036.650 127.257, 1029.383 117.104, 1019.598 110.609 C 1011.151 105.002, 1004.148 102.916, 991.598 102.266 L 980.697 101.702 981.386 106.101 M 341.227 139.447 C 319.783 144.640, 301.914 164.621, 297.454 188.395 C 296.691 192.462, 297.577 192.893, 301.846 190.531 C 305.862 188.309, 315.807 184.437, 322.202 182.605 C 336.456 178.523, 344.105 177.758, 377 177.125 C 414.377 176.406, 411.607 177.486, 405.285 166.097 C 398.131 153.209, 385.072 143.219, 370.540 139.518 C 363.400 137.700, 348.591 137.664, 341.227 139.447 M 867 138.953 C 850.246 142.105, 833.315 154.531, 825.327 169.539 C 821.187 177.318, 818 189.696, 818 198 C 818 206.242, 821.165 218.608, 825.293 226.500 C 827.095 229.944, 831.642 235.741, 835.966 240.108 C 851.458 255.754, 871.324 261.159, 891.987 255.349 C 902.429 252.413, 914.700 243.834, 921.615 234.635 C 931.016 222.129, 934 213.113, 934 197.216 C 934 180.791, 929.077 168.213, 918.158 156.740 C 907.300 145.331, 894.751 139.385, 879.795 138.563 C 875.233 138.312, 869.475 138.488, 867 138.953 M 1063.500 205.663 C 1020.697 211.575, 996.653 234.663, 983.480 282.500 C 979.909 295.468, 979.750 295.003, 987.750 294.983 C 1004.123 294.941, 1015.916 290.146, 1027 279.025 C 1034.996 271.002, 1038.605 265.382, 1052.092 239.950 C 1062.104 221.070, 1062.491 219.894, 1059.811 216.487 L 1057.782 213.907 1060.641 214.592 C 1062.213 214.969, 1064.247 215.658, 1065.160 216.125 C 1066.191 216.653, 1068.165 216.411, 1070.377 215.487 C 1072.335 214.669, 1075.300 214, 1076.968 214 C 1079.531 214, 1080 214.385, 1080 216.486 C 1080 217.853, 1079.484 220.902, 1078.853 223.261 L 1077.705 227.552 1087.705 246.634 C 1093.204 257.129, 1099.353 268.200, 1101.369 271.237 C 1111.751 286.877, 1127.764 294.977, 1148.338 294.994 L 1155.176 295 1154.513 290.750 C 1150.473 264.868, 1136.442 238.613, 1118.776 223.883 C 1105.370 212.705, 1077.950 203.667, 1063.500 205.663" stroke="none" fill="#000" fill-rule="evenodd"/>
</svg>